<?xml version="1.0" standalone="no"?>
<!DOCTYPE svg PUBLIC "-//W3C//DTD SVG 20010904//EN"
 "http://www.w3.org/TR/2001/REC-SVG-20010904/DTD/svg10.dtd">
<svg version="1.0" xmlns="http://www.w3.org/2000/svg"
 width="200.000000pt" height="200.000000pt" viewBox="0 0 200.000000 200.000000"
 preserveAspectRatio="xMidYMid meet">
<metadata>
Created by potrace 1.14, written by Peter Selinger 2001-2017
</metadata>
<g transform="translate(0.000000,200.000000) scale(0.100000,-0.100000)"
fill="#000000" stroke="none">
<path d="M0 1000 l0 -1000 1000 0 1000 0 0 1000 0 1000 -1000 0 -1000 0 0
-1000z m436 779 c16 -18 19 -39 21 -130 1 -59 7 -127 14 -151 6 -24 9 -81 7
-132 -4 -82 -6 -91 -32 -113 -27 -23 -32 -23 -179 -21 l-152 3 -3 283 -2 282
153 0 c144 0 155 -1 173 -21z m438 -1 c13 -19 16 -61 16 -261 l0 -238 -25 -24
c-23 -24 -29 -25 -152 -25 -189 1 -183 -8 -183 293 0 295 -12 277 185 277 137
0 145 -1 159 -22z m406 0 c16 -24 30 -193 33 -390 2 -100 1 -108 -22 -132
l-25 -26 -155 2 -156 3 -3 283 -2 282 157 0 c153 0 159 -1 173 -22z m138 -30
c-3 -45 -6 -53 -23 -53 -16 0 -21 8 -23 39 -4 50 3 66 28 66 19 0 21 -5 18
-52z m406 33 c9 -10 20 -35 23 -55 5 -31 3 -36 -13 -36 -11 0 -24 10 -29 23
-10 21 -15 22 -140 22 l-130 0 -3 -92 -3 -93 141 0 140 0 20 -32 c16 -26 20
-51 20 -120 0 -92 -10 -133 -38 -154 -26 -20 -260 -19 -289 1 -23 16 -48 78
-38 95 11 18 35 10 45 -15 9 -25 10 -25 139 -25 108 0 130 3 135 16 11 28 6
150 -6 162 -8 8 -55 12 -145 12 l-133 0 -17 27 c-26 39 -26 217 0 256 l17 27
144 0 c127 0 145 -2 160 -19z m-1294 -1013 c18 -31 20 -51 20 -285 0 -246 -1
-253 -20 -253 -19 0 -20 7 -20 105 l0 105 -140 0 -139 0 -3 -102 c-3 -95 -4
-103 -23 -103 -19 0 -20 7 -20 255 0 228 2 259 18 283 l17 27 145 0 145 0 20
-32z m120 -218 l5 -245 135 0 135 0 3 248 c2 239 3 247 22 247 19 0 20 -7 20
-244 0 -251 -6 -298 -40 -316 -10 -6 -74 -10 -142 -10 -141 0 -161 8 -178 68
-11 41 -14 485 -3 496 4 4 14 5 23 4 13 -3 16 -38 20 -248z m720 220 l0 -29
-77 -3 -78 -3 -3 -253 c-2 -234 -4 -253 -20 -250 -15 3 -17 25 -20 256 l-2
252 -80 0 -80 0 0 30 0 30 180 0 180 0 0 -30z m384 8 c13 -19 16 -61 16 -261
l0 -238 -25 -24 c-23 -24 -30 -25 -149 -25 -68 0 -132 3 -141 6 -39 15 -45 54
-45 287 0 295 -12 277 185 277 137 0 145 -1 159 -22z"/>
<path d="M162 1728 c-16 -16 -16 -150 0 -166 17 -17 229 -17 246 0 12 12 17
134 6 162 -5 13 -26 16 -123 16 -78 0 -121 -4 -129 -12z"/>
<path d="M156 1474 c-8 -20 -8 -138 0 -158 5 -13 27 -16 133 -16 85 0 131 4
139 12 12 12 16 116 6 156 -6 21 -10 22 -139 22 -112 0 -134 -2 -139 -16z"/>
<path d="M581 1727 c-8 -10 -11 -74 -9 -218 l3 -204 135 0 135 0 0 215 0 215
-126 3 c-99 2 -129 0 -138 -11z"/>
<path d="M1002 1728 c-15 -15 -16 -132 -2 -159 10 -17 22 -19 123 -19 75 0
117 4 125 12 12 12 17 134 6 162 -5 13 -26 16 -123 16 -78 0 -121 -4 -129 -12z"/>
<path d="M996 1474 c-8 -20 -8 -138 0 -158 5 -14 27 -16 139 -16 152 0 145 -5
145 95 0 100 7 95 -145 95 -112 0 -134 -2 -139 -16z"/>
<path d="M237 733 c-4 -3 -7 -57 -7 -120 l0 -113 140 0 140 0 0 108 c0 71 -4
112 -12 120 -13 13 -249 18 -261 5z"/>
<path d="M1461 727 c-8 -10 -11 -74 -9 -218 l3 -204 135 0 135 0 0 215 0 215
-126 3 c-99 2 -129 0 -138 -11z"/>
</g>
</svg>
